<svg width="308" height="338" viewBox="0 0 308 338" fill="none" xmlns="http://www.w3.org/2000/svg">
<path d="M1.89165 81.9773C12.0318 46.1405 41.7287 30.8959 75.7709 36.6902C107.119 42.0261 123.496 81.1054 131.124 104.804C128.855 73.4148 134.655 29.7641 172.104 9.38159C229.324 -21.7637 265.54 34.0084 269.161 41.2511C272.783 48.4945 272.789 49.8809 262.643 49.2187C259.621 49.0208 233.286 41.6086 207.443 46.2823L195.282 35.067L189.646 50.8715C168.234 58.3748 151.054 77.6031 147.959 106.434C165.331 85.0779 192.125 71.328 222.297 71.328C274.758 71.328 317.283 112.698 317.283 163.728C317.283 167.836 317.198 164.889 317.198 164.889C317.051 166.823 315.784 168.492 313.962 169.155C312.14 169.812 310.097 169.341 308.744 167.95C308.744 167.95 307.687 166.303 302.933 161.957C294.559 154.295 285.346 147.544 275.477 141.789L266.452 124.943L254.274 131.411C236.002 124.129 216.073 120.111 195.198 120.111C181.431 120.111 168.064 121.859 155.316 125.135C184.713 123.189 229.02 138.513 246.556 175.922C268.285 222.277 246.902 259.071 243.812 261.95C241.276 264.31 238.209 262.471 237.378 258.357C235.562 249.366 230.57 232.559 221.404 213.71L225.104 198.76L214.913 201.369C202.141 178.846 183.439 155.199 156.985 139.27C177.43 184.313 194.258 250.14 168.613 337.697H105.633C105.633 337.697 169.57 275.768 136.342 148.777C129.121 158.108 119.932 171.649 112.264 188.144L102.571 189.366L106.9 200.966C101.592 215.169 97.7726 231.036 97.241 248.018C97.1052 252.352 94.4906 255.561 93.1557 252.72C72.6933 209.114 79.1281 164.484 107.811 138.443C89.7259 144.407 74.9458 158.95 63.4304 175.586L49.6969 178.534L52.2547 194.016C42.6178 212.339 36.7048 230.481 34.5935 240.882C33.7625 244.978 31.5892 247.65 28.9688 242.987C13.3569 215.204 11.3419 161.887 39.5561 132.7C61.4326 110.077 100.03 108.587 123.802 114.858C108.196 88.6185 66.44 86.6662 66.44 86.6662C66.44 86.6662 59.8364 71.4572 58.3874 69.284C56.939 67.1114 48.9714 84.0991 48.9714 84.0991L6.92744 101.273C6.92744 101.273 1.52956 104.963 0.476891 98.6927C-0.156951 94.9068 -0.541485 89.0729 1.89165 81.9773Z" fill="white"/>
</svg>
